<svg width="239.99999999999997" height="119.99999999999999" xmlns="http://www.w3.org/2000/svg">

 <g>
  <title>background</title>
  <rect fill="none" id="canvas_background" height="402" width="582" y="-1" x="-1"/>
 </g>
 <g>
  <title>Layer 1</title>
  <g id="svg_1">
   <rect id="svg_3" height="2" width="2" fill="#D2C9C0" y="31" x="213"/>
   <path stroke="null" id="svg_34" d="m245.665584,14.891579c0.121541,0.00042 0.238984,0.004403 0.345695,0.012677c0.569131,0.044128 1.138688,0.176215 1.138688,0.176215c0,0 -0.00072,0.617913 0.080584,1.059191c0.081303,0.441279 0.406423,1.191035 0.406423,1.191035l-0.399417,0.434198l-0.007006,-0.080501l-1.344238,0.128041l-0.119122,0.003803c0,0 -0.162063,-0.088202 -0.324674,-0.220586c-0.162609,-0.132384 -0.488176,-0.220586 -0.488176,-0.220586c0,0 -0.080583,-0.661892 -0.080583,-1.147298c0,-0.485407 -0.32584,-1.279776 -0.32584,-1.279776c0,0 0.590994,-0.058235 1.117665,-0.056414l0.000001,-0.000001zm0.220731,2.920856l1.344238,-0.039934l0.007006,-0.007606l0.699563,7.806701c-0.024521,0.002565 -0.056058,0.005704 -0.056058,0.005704c-0.018731,0.149847 -0.102774,0.2639 -0.234744,0.353063l-1.499566,0.37208c-0.045078,0.006509 -0.090168,0.012917 -0.135473,0.019651l-0.162338,-8.505854l0.037374,-0.003803l-0.000001,-0.000001zm0.124964,8.509657l0,0.013945l0.135473,-0.033595c0.608293,-0.087833 1.187338,-0.161122 1.499566,-0.37208l0.316498,-0.078599l-0.025694,-0.280168c0.274055,-0.028679 1.948972,-0.194978 2.545991,-0.032962c0.650437,0.17651 1.138415,0.441159 1.301025,1.014821c0.162609,0.573663 -0.325393,1.632921 -0.244088,2.338966c0.081306,0.706046 0.976254,1.367872 1.382776,1.941534c0.406524,0.573662 0.812499,1.235676 0.324673,2.20649c-0.487828,0.97081 -2.276906,1.632783 -3.252561,1.853425c-0.975654,0.220638 -3.007304,0.353065 -3.007304,0.353065c0,0 -1.952407,0.177239 -3.171978,0.133112c-2.561028,-0.250448 -3.635129,-1.075464 -3.794458,-2.106339c-0.159331,-1.030875 0.596726,-2.267516 1.696936,-3.341744c1.202957,-1.174549 -1.087925,-2.731202 0.096935,-3.607969c1.232862,-0.912287 2.143931,0.593681 3.00964,0.266224c0.351382,-0.132911 0.771844,-0.20651 1.186572,-0.268124l-0.000001,-0.000001z" fill-opacity="null" stroke-opacity="null" stroke-width="null" fill="#7D7160"/>
  </g>
  <g id="svg_13">
   <rect id="svg_15" height="2" width="2" fill="#FF6155" y="89.999811" x="213"/>
   <path stroke="null" id="svg_35" d="m209.533768,11.999867c-0.117317,0.000574 -0.230679,0.006017 -0.333682,0.017323c-0.549354,0.060296 -1.099119,0.240782 -1.099119,0.240782c0,0 0.000695,0.84432 -0.077784,1.447286c-0.078478,0.602967 -0.3923,1.627439 -0.3923,1.627439l0.385537,0.593291l0.006763,-0.109997l1.297526,0.174957l0.114983,0.005197c0,0 0.156432,-0.120521 0.313392,-0.30141c0.156958,-0.18089 0.471212,-0.30141 0.471212,-0.30141c0,0 0.077783,-0.904414 0.077783,-1.567677c0,-0.663263 0.314517,-1.748696 0.314517,-1.748696c0,0 -0.570457,-0.079572 -1.078827,-0.077085l-0.000001,-0.000001zm-0.213061,3.99108l-1.297526,-0.054566l-0.006763,-0.010393l-0.675253,10.667133c0.023669,0.003505 0.05411,0.007794 0.05411,0.007794c0.01808,0.204752 0.099203,0.360595 0.226587,0.482428l1.447456,0.508413c0.043512,0.008894 0.087035,0.01765 0.130765,0.026851l0.156697,-11.622462l-0.036075,-0.005197l0.000001,-0.000001zm-0.120622,11.627659l0,0.019054l-0.130765,-0.045905c-0.587155,-0.120016 -1.146078,-0.220158 -1.447456,-0.508413l-0.3055,-0.107399l0.024801,-0.382823c-0.264532,-0.039187 -1.881246,-0.26642 -2.457519,-0.04504c-0.627835,0.241185 -1.098855,0.602803 -1.255814,1.386658c-0.156958,0.783858 0.314086,2.231235 0.235606,3.195981c-0.07848,0.964746 -0.94233,1.86907 -1.334725,2.652926c-0.392397,0.783856 -0.784265,1.688437 -0.313391,3.014964c0.470877,1.326522 2.197784,2.231047 3.139535,2.532533c0.941751,0.301482 2.902801,0.48243 2.902801,0.48243c0,0 1.884561,0.242181 3.061753,0.181885c2.472033,-0.342214 3.508809,-1.469522 3.662602,-2.878117c0.153794,-1.408595 -0.57599,-3.09835 -1.637968,-4.566183c-1.161155,-1.604913 1.05012,-3.731934 -0.093566,-4.929956c-1.19002,-1.246555 -2.06943,0.811211 -2.905056,0.363771c-0.339172,-0.181611 -0.745022,-0.282176 -1.145339,-0.366367l0.000001,-0.000001z" stroke-opacity="null" stroke-width="null" fill="#999999"/>
   <path stroke="null" id="svg_36" d="m212.534335,71.011022c-0.117317,0.000574 -0.230679,0.006017 -0.333682,0.017322c-0.549354,0.060297 -1.099119,0.240782 -1.099119,0.240782c0,0 0.000695,0.844321 -0.077784,1.447287c-0.078478,0.602966 -0.3923,1.627439 -0.3923,1.627439l0.385537,0.593291l0.006763,-0.109996l1.297526,0.174956l0.114982,0.005197c0,0 0.156432,-0.12052 0.313392,-0.30141c0.156958,-0.18089 0.471213,-0.301409 0.471213,-0.301409c0,0 0.077783,-0.904414 0.077783,-1.567677c0,-0.663264 0.314517,-1.748696 0.314517,-1.748696c0,0 -0.570457,-0.079572 -1.078827,-0.077085l-0.000001,-0.000001zm-0.213061,3.99108l-1.297525,-0.054566l-0.006763,-0.010394l-0.675253,10.667134c0.023669,0.003504 0.05411,0.007793 0.05411,0.007793c0.018081,0.204753 0.099203,0.360595 0.226587,0.482429l1.447456,0.508413c0.043512,0.008893 0.087035,0.01765 0.130766,0.02685l0.156696,-11.622462l-0.036075,-0.005197l0.000001,0zm-0.120621,11.627658l0,0.019054l-0.130766,-0.045904c-0.587155,-0.120016 -1.146078,-0.220158 -1.447456,-0.508413l-0.305499,-0.107399l0.024801,-0.382823c-0.264532,-0.039187 -1.881246,-0.26642 -2.457519,-0.04504c-0.627834,0.241185 -1.098855,0.602804 -1.255814,1.386659c-0.156958,0.783858 0.314086,2.231235 0.235606,3.195981c-0.078481,0.964746 -0.94233,1.86907 -1.334725,2.652925c-0.392398,0.783856 -0.784265,1.688437 -0.313391,3.014965c0.470877,1.326521 2.197784,2.231047 3.139536,2.532533c0.94175,0.301482 2.902801,0.48243 2.902801,0.48243c0,0 1.884561,0.242181 3.061752,0.181885c2.472034,-0.342214 3.508809,-1.469522 3.662602,-2.878117c0.153794,-1.408595 -0.57599,-3.09835 -1.637968,-4.566183c-1.161154,-1.604913 1.05012,-3.731934 -0.093566,-4.929956c-1.19002,-1.246555 -2.06943,0.811211 -2.905056,0.363771c-0.339172,-0.181611 -0.745023,-0.282176 -1.145339,-0.366367l0.000001,-0.000001z" stroke-opacity="null" stroke-width="null" fill="#CC7C65"/>
  </g>
  <path stroke="#000" id="svg_25" d="m41.996231,27.247359c-0.893233,1.009206 -1.842138,1.701779 -2.82748,2.098045c-4.118312,0.051017 -8.10476,0.070775 -12.237755,0.508733c-1.1012,-0.453758 -2.358097,0.031049 -3.301402,-1.562267c-0.69909,-1.241124 -2.172085,-0.417416 -1.931225,1.94301c0.476157,2.408623 -1.127056,3.710793 -0.585263,6.154815c0.471485,2.509772 1.892455,1.543354 2.744072,0.713428c1.564684,-0.820069 3.126724,-1.684657 4.697004,-2.459216c3.278615,-0.824435 6.363894,-0.313076 9.604966,0.174494c0.900968,0.435374 1.816132,0.689597 2.733411,0.920122c0.785096,0.027365 1.414619,1.276607 2.152418,1.480435c0.975513,-0.209491 1.265835,-3.282533 0.585703,-4.645866c-1.016778,-1.491526 0.520706,-4.12865 -0.627656,-5.366455c-0.327862,-0.395081 -0.673243,-0.129514 -1.006793,0.040719l0,0.000003z" stroke-opacity="null" stroke-width="0" fill="#999999"/>
  <path stroke="#000" id="svg_27" d="m22.218726,82.007204c0.09743,0.029515 0.200932,0.049769 0.308408,0.061358c0.449206,0.001492 0.884028,0.00207 1.334835,0.014878c0.120114,-0.01327 0.25721,0.000908 0.360101,-0.045689c0.076253,-0.036297 0.236921,-0.012207 0.210649,0.056824c-0.051937,0.070441 0.122934,0.108524 0.063838,0.18c-0.051427,0.073399 -0.20642,0.045136 -0.29931,0.020864c-0.170668,-0.023983 -0.341048,-0.049268 -0.512326,-0.071921c-0.357615,-0.024111 -0.694143,-0.009156 -1.047663,0.005103c-0.098273,0.012733 -0.198095,0.020168 -0.298147,0.026909c-0.085634,0.0008 -0.1543,0.037335 -0.234775,0.043296c-0.106404,-0.006127 -0.138071,-0.095999 -0.063886,-0.13587c0.110905,-0.04362 -0.056796,-0.120744 0.068462,-0.156944c0.035762,-0.011554 0.073434,-0.003788 0.109816,0.001191l0,0z" stroke-opacity="null" stroke-width="0" fill="#CC7C65"/>
  <path stroke="#FFA9A2" id="svg_28" d="m21.049277,96.37483c0.913084,-1.255231 1.883076,-2.116641 2.890314,-2.609508c4.209833,-0.063453 8.284872,-0.088029 12.509714,-0.632752c1.125672,0.564376 2.410501,-0.038619 3.374769,1.943118c0.714626,1.543687 2.220356,0.519174 1.974143,-2.416679c-0.486739,-2.9958 1.152102,-4.615414 0.598269,-7.655243c-0.481963,-3.121608 -1.934511,-1.919595 -2.805054,-0.887348c-1.599456,1.019986 -3.196209,2.095344 -4.801385,3.058726c-3.351475,1.025417 -6.505318,0.389398 -9.818416,-0.217032c-0.92099,-0.54151 -1.856492,-0.857708 -2.794155,-1.14443c-0.802543,-0.034036 -1.446056,-1.587819 -2.200251,-1.841337c-0.997191,0.260561 -1.293966,4.082752 -0.598719,5.77844c1.039374,1.855132 -0.532278,5.135137 0.641604,6.674696c0.335148,0.491394 0.688205,0.161087 1.029167,-0.050646l0,-0.000004z" stroke-width="0" fill="#CC7C65"/>
  <path stroke="#FFA9A2" id="svg_29" d="m97.52477,97.009765l-10.372322,0c-1.495101,-0.002972 -2.515072,-1.353688 -2.510093,-2.743271l0,-0.934352c-2.960106,-0.002496 -5.107709,-2.389665 -5.106603,-5.173229c-0.001106,-2.833128 2.10434,-5.160748 4.555014,-5.158727l15.987693,0l0,11.266546c-0.002324,1.529956 -1.2291,2.740299 -2.553689,2.743033zm-12.882083,-11.89032l0,0l-0.55159,0c-2.027991,-0.003447 -2.678502,2.05674 -2.668764,3.05492c-0.001992,1.611731 1.109265,3.157495 3.220354,3.007495l0,-6.062415zm21.151282,12.576375c-0.001882,2.082532 -1.479833,3.048264 -2.66943,3.054207l-21.456121,0c-1.418974,-0.005943 -2.662679,-1.204401 -2.668986,-3.054207l26.794537,0z" stroke-width="0" fill="#CC7C65"/>
  <path stroke="#FFA9A2" id="svg_30" d="m98.524958,36.998424l-10.372322,0c-1.495101,-0.002972 -2.515072,-1.353688 -2.510093,-2.743271l0,-0.934352c-2.960106,-0.002496 -5.107709,-2.389665 -5.106603,-5.173229c-0.001106,-2.833128 2.10434,-5.160748 4.555014,-5.158727l15.987693,0l0,11.266546c-0.002324,1.529956 -1.2291,2.740299 -2.553689,2.743033zm-12.882083,-11.89032l0,0l-0.55159,0c-2.027991,-0.003447 -2.678502,2.05674 -2.668764,3.05492c-0.001992,1.611731 1.109265,3.157495 3.220354,3.007495l0,-6.062415zm21.151282,12.576375c-0.001882,2.082532 -1.479833,3.048264 -2.66943,3.054207l-21.456121,0c-1.418974,-0.005943 -2.662679,-1.204401 -2.668986,-3.054207l26.794537,0z" stroke-width="0" fill="#999999"/>
  <path id="svg_32" d="m135.850032,37.598778c-0.894955,-1.240143 -2.573103,0.103794 -2.775466,-2.159912c-0.389523,-2.01158 0.80044,-3.58315 1.592279,-4.801195c1.385305,-1.135756 2.982648,-1.273094 4.48078,-1.793538c1.795245,-0.42875 3.664399,-0.795202 5.211984,-2.49706c1.762668,-1.814712 3.725847,-3.324967 5.849382,-3.29821c2.925875,-0.166872 5.953087,-0.005201 8.658237,2.050627c1.700423,1.262846 3.527361,1.904673 5.342106,2.522439c1.544075,0.333956 1.184993,3.074393 1.698563,4.763863c0.392041,1.940036 -0.45545,3.871101 -1.695959,3.932786c-1.311614,0.490605 -2.846659,0.538892 -3.762282,2.422845c-0.937938,1.708666 -2.622134,1.649683 -3.577269,0.017386c-0.39489,-0.40349 -0.65853,-1.380384 -1.18438,-1.211758c-4.903329,0.04372 -9.809186,-0.115212 -14.710373,0.143671c-1.280715,-0.167791 -1.812675,2.447655 -3.174971,2.265861c-0.697516,0.035609 -1.358053,-1.818004 -1.952631,-2.357807l0,0.000002z" stroke-opacity="null" stroke-width="0" stroke="#FFA9A2" fill="#999999"/>
  <path id="svg_33" d="m137.850411,95.598778c-0.894955,-1.240144 -2.573103,0.103793 -2.775467,-2.159912c-0.389523,-2.01158 0.80044,-3.58315 1.592279,-4.801195c1.385305,-1.135756 2.982648,-1.273094 4.48078,-1.793538c1.795245,-0.428751 3.664399,-0.795202 5.211984,-2.497061c1.762669,-1.814711 3.725848,-3.324966 5.849382,-3.298209c2.925876,-0.166872 5.953087,-0.005201 8.658237,2.050627c1.700423,1.262847 3.527361,1.904673 5.342106,2.522439c1.544075,0.333956 1.184993,3.074393 1.698563,4.763863c0.392041,1.940036 -0.455449,3.871101 -1.695959,3.932786c-1.311614,0.490605 -2.846659,0.538892 -3.762282,2.422845c-0.937937,1.708665 -2.622133,1.649683 -3.577268,0.017385c-0.39489,-0.40349 -0.65853,-1.380383 -1.18438,-1.211758c-4.903328,0.04372 -9.809186,-0.115211 -14.710373,0.143671c-1.280715,-0.167791 -1.812675,2.447655 -3.174971,2.265862c-0.697516,0.035609 -1.358053,-1.818005 -1.952631,-2.357807l0,0.000002z" stroke-opacity="null" stroke-width="0" stroke="#FFA9A2" fill="#CE7975"/>
 </g>
</svg>